<svg width="1024" height="1024" viewBox="0 0 1024 1024" fill="none" xmlns="http://www.w3.org/2000/svg">
<g clip-path="url(#clip0_11_73)">
<path d="M156.11 497.968C157.065 498.046 157.618 498.103 158.438 498.64C159.58 499.389 160.078 500.697 160.39 501.949C159.972 503.594 159.602 504.249 158.194 505.221C154.795 507.571 150.331 508.893 146.585 510.672C138.228 514.641 129.965 521.211 123.799 528.091C122.28 529.766 120.833 531.503 119.46 533.3C118.086 535.097 116.79 536.948 115.571 538.854C114.353 540.759 113.217 542.712 112.162 544.713C111.107 546.714 110.138 548.756 109.255 550.838C106.966 556.245 106.026 564.673 102.112 568.914C101.545 568.845 100.78 568.801 100.229 568.598C98.9799 568.139 98.2875 567.428 97.7806 566.207C95.6596 561.096 102.776 545.995 105.147 541.295C115.241 521.284 134.83 504.878 156.11 497.968Z" fill="#6734FF"/>
<path d="M698.49 304.701C702.001 304.983 704.91 305.64 707.912 307.618C711.5 309.982 713.986 313.641 714.693 317.895C715.421 322.276 714.242 326.826 711.67 330.421C708.106 335.402 703.405 337.1 697.632 338.043C693.671 337.642 690.219 336.851 687.017 334.341C683.655 331.707 681.659 327.84 681.177 323.619C680.678 319.253 681.812 314.786 684.585 311.342C688.188 306.866 693.044 305.413 698.49 304.701Z" fill="#272B5D"/>
<path d="M696.654 312.553C698.077 312.596 699.579 312.716 700.937 313.168C703.142 313.902 705.114 315.369 706.129 317.499C707.134 319.607 707.057 321.923 706.162 324.052C704.875 327.116 702.488 328.501 699.571 329.777C697.98 329.889 696.173 329.812 694.654 329.276C692.524 328.523 690.63 326.859 689.673 324.808C688.699 322.721 688.72 320.331 689.599 318.218C690.953 314.96 693.587 313.808 696.654 312.553Z" fill="white"/>
<path d="M632.557 316.084C635.715 315.925 638.467 316.299 641.38 317.58C641.657 317.699 641.93 317.826 642.201 317.96C642.471 318.094 642.738 318.235 643.001 318.382C643.264 318.529 643.523 318.684 643.778 318.845C644.033 319.006 644.283 319.173 644.529 319.347C644.776 319.521 645.017 319.701 645.254 319.888C645.491 320.075 645.723 320.267 645.95 320.466C646.177 320.665 646.398 320.869 646.615 321.079C646.831 321.289 647.042 321.505 647.247 321.726C647.452 321.947 647.652 322.173 647.845 322.404C648.038 322.635 648.226 322.872 648.407 323.113C648.588 323.354 648.763 323.599 648.931 323.85C649.1 324.1 649.262 324.354 649.417 324.613C649.572 324.872 649.721 325.134 649.862 325.4C650.003 325.666 650.138 325.936 650.266 326.209C650.393 326.482 650.514 326.759 650.627 327.038C650.74 327.318 650.846 327.6 650.945 327.885C651.104 328.367 651.239 328.856 651.349 329.351C651.46 329.847 651.545 330.347 651.606 330.851C651.667 331.355 651.702 331.861 651.712 332.368C651.722 332.876 651.707 333.383 651.667 333.889C651.626 334.395 651.561 334.898 651.471 335.397C651.38 335.896 651.265 336.39 651.125 336.879C650.985 337.367 650.821 337.847 650.634 338.318C650.446 338.79 650.235 339.251 650.002 339.702C647.385 344.874 643.047 347.296 637.749 348.959C633.37 349.553 629.72 349.263 625.834 346.935C625.583 346.784 625.335 346.626 625.091 346.462C624.848 346.299 624.609 346.129 624.374 345.952C624.139 345.776 623.909 345.594 623.683 345.406C623.458 345.218 623.237 345.025 623.022 344.826C622.807 344.627 622.596 344.422 622.391 344.212C622.186 344.002 621.986 343.787 621.792 343.567C621.598 343.346 621.41 343.121 621.228 342.891C621.045 342.662 620.869 342.427 620.698 342.188C620.527 341.949 620.363 341.706 620.205 341.459C620.047 341.212 619.895 340.96 619.75 340.705C619.605 340.45 619.467 340.192 619.335 339.929C619.203 339.667 619.078 339.402 618.959 339.133C618.841 338.864 618.73 338.593 618.625 338.319C618.521 338.044 618.424 337.767 618.333 337.488C618.243 337.209 618.16 336.927 618.084 336.644C618.009 336.361 617.94 336.075 617.879 335.788C617.766 335.258 617.68 334.724 617.621 334.185C617.563 333.647 617.532 333.107 617.529 332.565C617.526 332.023 617.55 331.482 617.602 330.943C617.654 330.404 617.733 329.869 617.84 329.338C617.947 328.807 618.08 328.282 618.24 327.765C618.4 327.248 618.586 326.74 618.799 326.241C619.011 325.742 619.248 325.256 619.51 324.782C619.772 324.308 620.057 323.848 620.366 323.403C623.294 319.153 627.627 317.085 632.557 316.084Z" fill="#272B5D"/>
<path d="M633.152 323.52C634.604 323.474 636.227 323.624 637.587 324.169C639.751 325.036 641.655 326.858 642.565 329.007C643.53 331.287 643.501 333.743 642.575 336.028C641.352 339.045 639.034 340.431 636.15 341.622C634.777 341.618 633.31 341.546 631.987 341.138C629.731 340.442 627.587 338.778 626.505 336.663C625.445 334.591 625.356 332.255 626.108 330.071C627.336 326.503 629.89 325.035 633.152 323.52Z" fill="white"/>
<path d="M135.428 461.084C135.906 461.118 136.386 461.137 136.86 461.209C138.568 461.47 139.774 462.005 140.79 463.358C140.743 465.178 139.917 466.038 138.531 467.112C134.337 470.361 128.857 472.447 124.217 475.059C116.411 479.453 108.192 486.652 101.903 492.91C78.7575 515.941 66.1206 547.92 65.1676 580.414C65.0412 584.231 65.1182 588.045 65.3986 591.854C65.7053 595.79 66.9085 601.193 66.3677 604.972C66.1546 606.462 65.0333 607.104 63.9972 608.077C62.9216 608.292 62.3664 608.226 61.3186 607.911C59.7936 606.683 59.2596 605.693 58.7656 603.794C57.4879 598.882 57.5884 593.307 57.4784 588.24C56.9197 562.523 62.5621 536.905 75.6865 514.611C86.8217 495.697 113.201 466.815 135.428 461.084Z" fill="#6734FF"/>
<path d="M672.87 896.706C691.256 895.317 702.748 903.901 717.03 913.927C752.653 938.937 765.67 899.206 798.218 897.504C826.162 896.042 839.12 923.731 865.05 921.563C870.351 921.12 875.819 919.471 880.435 916.813C883.974 914.776 887.856 911.425 891.929 910.703C893.227 911.262 893.772 911.891 894.691 912.92C894.911 913.767 895.184 914.2 894.894 915.072C893.664 918.763 886.955 922.235 883.643 923.938C871.442 930.213 859.168 931.224 846.134 927.101C833.062 921.4 822.554 909.722 808.573 906.386C788.491 901.594 776.378 914.83 761.057 923.983C754.674 927.796 747.668 929.884 740.22 929.963C716.279 930.218 706.708 910.737 685.957 905.5C671.005 901.727 658.806 907.821 646.753 916.139C643.792 918.182 640.891 920.698 637.765 922.427C635.679 923.58 634.022 924.183 631.69 923.518C630.634 922.687 630.181 922.299 629.785 920.998C629.903 919.91 630.106 919.173 630.819 918.311C633.088 915.568 636.696 913.88 639.59 911.89C650.982 904.057 658.587 898.068 672.87 896.706Z" fill="#272B5D"/>
<path d="M599.246 943.639C611.163 941.734 624.179 946.505 633.807 953.245C640.605 958.005 647.015 963.734 654.688 967.068C680.583 978.318 691.969 955.465 712.775 947.565C727.954 941.802 744.228 944.283 757.523 953.405C764.277 958.039 770.493 963.68 778.025 967.047C788.572 971.761 800.866 970.178 810.746 964.509C814.095 962.587 817.593 959.685 821.228 958.447C822.848 957.896 823.766 958.068 825.285 958.765C826.116 959.987 826.184 960.205 826.274 961.68C824.882 965.149 821.39 967.284 818.32 969.192C806.201 976.724 793.752 979.394 779.789 976.198C774.91 974.479 770.331 972.435 765.99 969.597C757.812 964.25 751.065 957.431 741.619 954.119C716.55 945.332 704.58 964.833 684.715 974.058C670.607 980.609 654.652 977.961 642.079 969.292C634.069 963.77 627.209 956.826 617.88 953.464C601.675 947.623 586.69 953.832 574.057 964.246C571.236 966.571 568.845 970.292 565.405 971.724C564.251 972.205 562.927 972.35 561.789 971.729C560.566 971.062 560.075 970.316 559.688 969.029C559.788 967.625 560.023 966.728 560.832 965.553C562.881 962.581 566.134 960.163 568.964 957.97C578.129 950.868 587.708 945.555 599.246 943.639Z" fill="#272B5D"/>
<path d="M706.494 181.415C712.093 181.386 760.627 195.218 764.174 198.093C764.029 203.996 734.439 266.21 729.528 276.371C727.355 280.805 724.06 291.661 720.389 294.419C718.701 295.688 716.497 295.834 714.472 295.564C709.828 294.945 693.09 290.675 690.62 287.287C690.189 280.519 692.027 273.139 693.017 266.449L697.698 234.138L701.839 203.294C702.626 197.343 703.202 191.174 704.483 185.309C704.824 183.751 705.523 182.658 706.494 181.415Z" fill="#272B5D"/>
<path d="M711.719 190.775C726.168 194.193 740.471 198.899 754.824 202.788C743.807 224.859 733.746 247.555 723.48 269.989C720.889 275.901 718.201 281.792 714.954 287.374C709.48 286.061 704.079 284.351 698.675 282.777C702.92 252.097 707.868 221.52 711.719 190.775Z" fill="white"/>
<path d="M385.441 847.695C417.395 845.981 427.38 875.106 451.754 875.545C474.155 875.949 485.825 848.352 512.667 848.335C537.701 848.32 548.578 874.517 572.539 875.464C596.894 876.427 606.509 848.074 634.181 847.721C662.361 847.362 671.255 872.991 694.553 874.914C720.409 877.048 731.013 848.606 757.766 848.028C784.033 847.461 790.438 866.333 811.593 873.177C841.138 882.737 852.032 848.809 881.999 847.709C911.354 846.632 921.093 873.417 946.241 875.302C957.173 876.121 968.261 870.758 976.324 863.753C977.866 862.413 979.048 861.119 981.298 861.409C982.967 861.624 983.703 862.441 984.662 863.724C984.83 864.539 984.958 865.187 984.668 866.005C983.289 869.903 976.832 873.449 973.426 875.434C961.646 882.299 949.141 884.454 935.898 880.944C919.562 876.141 909.71 861.261 893.877 856.894C869.837 850.265 860.738 866.781 842.69 876.815C826.416 885.863 808.595 883.661 793.752 873.042C785.709 867.289 778.279 859.677 768.522 856.957C746.056 850.694 734.788 868.197 717.502 877.631C701.694 886.257 684.615 883.819 670.269 873.456C661.821 867.354 654.337 859.729 644.025 856.837C620.605 850.267 611.063 868.258 593.23 878.06C592.461 878.491 591.68 878.898 590.885 879.28C590.09 879.662 589.285 880.018 588.468 880.349C587.651 880.68 586.825 880.986 585.988 881.265C585.152 881.544 584.308 881.796 583.456 882.022C582.604 882.248 581.746 882.447 580.881 882.619C580.016 882.79 579.147 882.935 578.274 883.052C577.4 883.169 576.523 883.258 575.644 883.32C574.765 883.382 573.884 883.416 573.003 883.422C548.025 883.682 540.158 862.756 519.788 857.136C498.689 851.316 486.391 869.97 470.193 878.874C464.208 882.164 457.848 883.903 451.002 883.779C428.644 883.376 418.07 862.593 398.034 856.836C381.871 852.192 369.235 861.4 357.393 871.159C354.967 873.159 351.748 876.586 349.004 877.831C347.964 878.303 346.849 878.541 345.788 878.019C344.717 877.492 343.863 876.587 343.637 875.375C343.307 873.609 344.462 871.911 345.534 870.629C347.691 868.049 350.54 865.896 353.133 863.763C362.609 855.966 372.961 849.02 385.441 847.695Z" fill="#272B5D"/>
<path d="M598.596 179.209C602.41 178.947 606.457 179.14 610.253 179.562C623.138 180.993 635.312 187.264 643.43 197.458C651.299 207.34 653.855 220.195 652.389 232.556C650.17 251.283 638.933 261.011 624.98 272.066C627.636 277.989 638.538 292.388 638.408 297.766C637.595 298.777 636.842 299.574 635.747 300.284C632.935 302.104 629.604 303.2 626.617 304.736C619.863 308.209 613.732 312.273 606.453 314.653C598.504 304.9 591.771 291.251 585.345 280.305C583.763 277.513 582.327 274.754 581.054 271.807C589.606 261.922 604.72 253.285 609.37 239.916C610.863 235.625 610.654 231.355 608.571 227.3C608.326 226.829 608.057 226.371 607.764 225.928C607.471 225.485 607.157 225.058 606.82 224.647C606.483 224.236 606.126 223.843 605.749 223.469C605.372 223.095 604.976 222.741 604.562 222.408C604.149 222.075 603.719 221.763 603.273 221.474C602.827 221.185 602.367 220.92 601.894 220.678C601.421 220.437 600.937 220.22 600.441 220.029C599.946 219.837 599.442 219.671 598.929 219.532C593.389 217.982 587.3 219.52 582.505 222.51C577.409 225.688 576.803 232.176 575.464 237.453C575.046 239.104 574.674 240.325 573.126 241.239C567.791 241.668 537.989 238.576 533.975 236.389C533.799 235.667 533.761 235.634 533.722 234.783C533.379 227.343 544.33 209.72 549.346 203.999C562.183 189.355 579.196 180.597 598.596 179.209Z" fill="#272B5D"/>
<path d="M599.772 187.209C601.655 187.055 603.611 187.113 605.499 187.197C616.698 187.698 627.534 191.625 635.164 200.063C642.278 207.932 645.56 218.324 644.898 228.863C644.132 241.048 637.795 251.432 628.442 259.04C624.337 262.379 619.872 265.283 615.944 268.832L615.503 269.238C618.315 278.247 624.121 286.784 628.699 295.028C622.201 298.271 616.037 302.177 609.419 305.176C605.783 299.665 602.709 293.683 599.326 288.004C596.553 283.346 593.414 278.911 590.829 274.145L594.399 270.442C603.112 262.416 613.53 253.333 617.205 241.74C619.119 235.702 618.836 229.623 615.804 223.994C612.763 218.347 607.422 213.885 601.227 212.141C594.354 210.206 585.938 211.552 579.813 215.183C572.588 219.465 569.673 226.056 567.633 233.771C559.558 232.301 551.573 231.226 543.399 230.463C544.074 228.482 544.844 226.538 545.711 224.633C546.577 222.728 547.534 220.87 548.583 219.059C549.632 217.248 550.767 215.492 551.988 213.792C553.209 212.093 554.511 210.457 555.894 208.886C567.202 196.077 582.715 188.263 599.772 187.209Z" fill="white"/>
<path d="M233.78 534.433C243.273 534.129 251.984 550.542 261.218 554.205C271.196 558.163 286.921 547.12 296.188 543.564C297.941 542.892 300.205 542.25 301.966 543.27C303.178 543.973 303.852 545.35 304.221 546.648C305.16 549.954 305.067 553.864 305.202 557.299C305.855 573.987 302.941 589.983 294.67 604.623L325.584 597.845C332.137 596.426 338.946 594.551 345.642 594.149C347.707 594.025 349.728 594.392 351.75 594.755C355.538 602.387 358.768 610.38 362.131 618.209C369.618 635.638 376.701 653.164 383.851 670.729C391.134 688.62 400.406 708.291 406.03 726.549C399.63 739.992 391.49 752.942 384.195 765.933C376.719 779.245 369.82 792.907 362.316 806.179C361.222 808.113 360.134 810.568 358.037 811.553C352.545 814.132 345.717 815.122 339.835 816.526C332.896 818.225 325.971 819.977 319.058 821.782L243.838 840.792C226.114 845.177 208.296 849.33 190.695 854.187C187.429 855.015 182.211 857.106 179.083 855.211C177.279 854.117 165.262 824.684 163.638 820.923L123.312 727.757C120.371 720.894 117.366 714.059 114.298 707.252C112.011 702.203 108.926 696.923 107.749 691.505C114.192 685.249 123.953 680.631 131.672 675.965L164.921 655.698C147.656 654.299 130.513 650.142 115.849 640.607C111.235 637.607 93.866 624.358 93.413 618.762C93.3438 617.907 93.2366 617.182 93.9231 616.592C98.7404 612.453 113.622 613.337 121.743 606.45C131.225 598.406 127.284 579.227 135.751 571.033C137.997 568.859 141.145 568.434 144.142 568.642C172.071 570.581 198.4 598.068 215.728 618.061C214.694 607.632 213.84 597.299 214.362 586.806C215.222 569.51 220.366 546.578 233.78 534.433Z" fill="#6734FF"/>
<path d="M364.33 646.865C365.74 648.212 366.673 650.803 367.524 652.548C364.528 655.964 361.511 659.361 358.472 662.739L355.049 656.727C358.431 653.939 361.396 650.137 364.33 646.865Z" fill="white"/>
<path d="M335.896 679.861C337.711 681.575 338.741 684.176 339.887 686.373C330.569 694.942 322.996 705.223 314.068 714.178C312.339 711.746 311 708.821 309.591 706.184C318.335 697.622 326.477 687.598 335.896 679.861Z" fill="white"/>
<path d="M229.786 646.589L230.926 646.698C230.819 646.987 230.77 647.305 230.604 647.565C229.417 649.412 223.876 654.316 221.988 656.353C206.789 672.756 209.886 669.537 188.616 672.803L187.268 672.932L186.907 672.506C194.235 665.786 201.268 658.608 208.19 651.472C209.525 651.82 226.846 647.282 229.786 646.589Z" fill="white"/>
<path d="M243.281 588.257C244.107 588.571 244.888 588.99 245.493 589.644C248.427 592.821 248.844 598.432 248.591 602.523C247.863 614.313 240.39 623.073 232.035 630.66L228.77 632.96C229.249 628.842 229.942 624.761 230.653 620.677C232.417 610.548 234.293 594.575 243.281 588.257Z" fill="white"/>
<path d="M194.833 653.652C195.713 653.497 195.305 653.428 196.062 653.823C192.651 657.812 187.755 661.279 183.746 664.736C180.229 667.769 176.946 671.499 173.042 674.013C165.933 678.591 147.543 680.719 138.61 682.565L137.4 682.597C140.59 679.072 147.091 676.16 151.122 673.48C159.388 667.985 167.453 662.409 175.262 656.28C181.814 655.542 188.34 654.818 194.833 653.652Z" fill="white"/>
<path d="M193.65 736.133L194.21 736.199C196.257 738.473 197.686 742.15 199.11 744.896C181.45 748.952 163.57 752.768 146.108 757.597C145.357 757.777 145.782 757.775 144.851 757.381C143.148 754.707 142.108 751.704 140.942 748.768C158.029 744.474 176.465 739.6 193.65 736.133Z" fill="white"/>
<path d="M171.355 612.978C179.322 613.085 186.698 617.991 193.026 622.42C196.767 625.037 213.54 636.919 214.087 640.018L212.828 640.584C212.704 640.617 212.58 640.651 212.456 640.683L211.832 640.838L211.103 641.026C203.175 643.01 195.763 640.639 188.979 636.512C182.351 632.48 171.768 624.91 170.149 616.783C169.786 614.963 170.345 614.378 171.355 612.978Z" fill="white"/>
<path d="M346.256 602.351C349.067 604.929 359.923 634.12 361.702 639.222C358.236 642.153 355.385 645.396 352.246 648.642L351.709 648.338C346.415 636.578 340.449 624.814 334.253 613.505C338.341 609.872 342.449 606.284 346.256 602.351Z" fill="white"/>
<path d="M332.65 604.118L333.643 604.167C333.104 605.324 317.638 619.557 315.222 621.927C300.344 622.464 285.597 626.511 271.131 629.692L270.242 629.774C270.245 629.677 283.757 617.957 287.035 614.289L332.65 604.118Z" fill="white"/>
<path d="M300.855 709.593C302.08 709.47 301.459 709.413 302.712 709.816C304.855 712.465 306.287 715.733 307.831 718.762C285.058 724.374 261.972 729.141 239.112 734.453L237.452 734.759C234.629 733.374 233.444 728.673 232.32 725.88C255.24 720.749 277.904 714.624 300.855 709.593Z" fill="white"/>
<path d="M370.112 660.855L370.61 661.053C375.323 668.012 378.163 677.602 381.38 685.441C386.759 698.546 392.416 711.569 397.282 724.873C395.917 727.811 393.972 733.332 391.464 735.297L390.736 734.842C384.136 720.381 378.071 705.67 371.511 691.185C368.297 684.088 365.24 676.799 361.285 670.079L370.112 660.855Z" fill="white"/>
<path d="M306.671 630.72L307.002 631.2C302.339 636.343 285.576 654.688 280.576 657.798C275.524 660.941 230.197 666.957 221.359 668.277L221.117 667.606C228.434 658.818 237.772 651.664 245.013 642.759C251.808 641.509 258.509 639.729 265.271 638.303C278.993 635.35 292.793 632.822 306.671 630.72Z" fill="white"/>
<path d="M313.248 635.853C316.042 637.908 330.509 668.436 332.493 673.269C323.592 681.369 315.171 689.81 306.825 698.471L306.4 698.472C306.292 698.343 306.198 698.201 306.076 698.086C305.92 697.939 305.738 697.821 305.57 697.689C300.766 685.565 293.68 673.785 287.59 662.22C296.349 653.632 304.902 644.843 313.248 635.853Z" fill="white"/>
<path d="M329.18 619.355C331.205 621.233 335.136 631.818 336.727 635.171C347.727 658.347 358.748 681.46 369.291 704.852C375.213 717.991 381.469 731.209 386.182 744.837C384.827 747.812 382.245 755.288 379.546 756.778L378.78 755.849C369.378 732.48 359.173 709.468 348.165 686.812C338.647 667.493 328.294 648.536 319.386 628.925C322.826 625.939 325.973 622.588 329.18 619.355Z" fill="white"/>
<path d="M167.995 684.633L168.306 684.568C171.28 686.612 188.603 723.554 191.095 728.901C174.08 733.567 156.511 736.506 139.611 741.464L138.289 741.785C136.465 740.688 119.554 700.805 117.409 695.76C125.478 695.33 133.342 692.852 141.149 690.905C150.049 688.606 158.998 686.516 167.995 684.633Z" fill="white"/>
<path d="M342.439 693.76C345.927 695.758 370.519 756.227 375.136 765.904C369.107 777.987 362.097 789.44 356.319 801.67L353.978 796.844C341.685 772.061 330.223 746.912 317.464 722.359C320.415 718.412 324.115 714.787 327.415 711.109C332.514 705.405 337.522 699.622 342.439 693.76Z" fill="white"/>
<path d="M279.278 666.087L280.19 666.01C282.748 667.483 296.896 697.107 299.679 702.234C287.251 704.183 274.753 707.901 262.547 710.994C251.917 713.687 241.107 715.949 230.603 719.086C229.442 719.555 230.029 719.533 228.843 719.159C225.172 711.588 221.704 703.905 218.143 696.281C215.475 690.568 212.509 684.85 210.399 678.907C219.483 675.406 230.868 674.752 240.542 673.267C253.557 671.268 266.457 669.115 279.278 666.087Z" fill="white"/>
<path d="M142.424 576.492C145.358 576.444 148.27 577.042 151.084 577.821C174.89 584.409 205.365 612.742 217.494 634.438C212.457 630.109 207.881 625.229 202.842 620.878C192.648 612.074 182.208 604.557 168.203 605.62C168.044 605.714 167.882 605.804 167.725 605.902C164.921 607.675 162.892 609.792 162.304 613.175C161.281 619.062 165.245 624.66 168.478 629.191C175.585 637.912 183.854 642.974 194.349 646.858C186.252 647.251 178.152 647.68 170.042 647.652C143.067 647.56 122.6 640.028 103.528 620.807C110.096 619.864 116.695 618.752 122.423 615.184C133.582 608.231 135.393 596.071 138.057 584.347C138.828 580.959 139.298 578.408 142.424 576.492Z" fill="white"/>
<path d="M236.278 542.81C243.342 548.441 249.054 556.728 257.206 560.836C270.229 567.398 283.924 556.549 296.158 552.687L296.879 552.463C299.82 567.533 296.756 586.022 288.902 599.229C278.978 615.916 255.308 632.321 236.542 637.067L240.501 633.633C247.058 627.195 252.46 620.312 254.918 611.318C257.035 603.573 257.265 594.341 253.007 587.256C251.232 584.304 248.371 581.454 244.893 580.71C242.608 580.221 240.477 580.795 238.567 582.097C227.829 589.417 226.745 615.483 224.687 627.419C223.966 623.636 223.536 619.785 223.131 615.956C220.662 592.6 220.789 561.922 236.278 542.81Z" fill="white"/>
<path d="M201.329 679.204L202 679.098C202.272 679.321 202.603 679.486 202.815 679.765C204.381 681.83 207.444 691.25 208.708 694.16C211.956 701.642 215.616 708.976 219.138 716.332C231.373 741.884 244.288 767.052 257.099 792.315C262.642 803.244 268.896 813.938 273.834 825.152L249.889 831.543C243.425 821.274 238.361 808.025 232.726 797.031C221.238 774.62 210.585 751.931 199.605 729.274L176.795 683.015L201.329 679.204Z" fill="white"/>
<path d="M201.563 752.191C203.559 753.392 238.421 824.963 241.546 833.689C224.465 837.555 204.683 842.222 187.992 847.242C186.651 847.63 185.672 847.88 184.256 847.843C180.683 844.289 151.805 773.99 148.136 764.923C165.784 759.961 183.506 755.436 201.563 752.191Z" fill="white"/>
<path d="M310.133 726.147L310.57 726.138C313.41 727.721 345.36 796.717 350.329 806.648C341.345 807.868 332.376 810.518 323.579 812.703L281.778 823.066C273.719 809.183 266.585 794.437 259.286 780.129C252.84 767.493 245.887 754.799 240.236 741.795C263.238 735.881 286.829 730.664 310.133 726.147Z" fill="white"/>
<path d="M234.018 23.9207C244.703 25.6773 257.477 50.1141 270.564 55.8295C283.193 55.0507 296.115 48.3154 307.521 43.1876C310.818 41.705 315.72 38.8918 319.316 38.6336C320.45 38.5522 321.305 39.25 322.035 40.0457C324.339 42.5559 323.914 47.8747 323.81 51.065C322.786 82.2961 313.643 112.122 292.858 136.069C288.01 141.655 282.294 146.476 276.901 151.523C286.435 145.711 296.358 140.044 304.944 132.869C336.747 137.79 368.464 143.214 400.095 149.141C401.318 150.327 402.262 151.485 403.098 152.976C408.667 162.908 413.542 173.386 418.736 183.53L456.213 257.235C463.677 271.466 471.007 285.765 478.202 300.133C481.557 306.771 486.203 314.125 488.147 321.319C484.049 329.948 443.398 394.261 439.139 397.995C433.821 402.657 421.743 408.021 415.157 411.606C396.832 421.783 378.4 431.763 359.861 441.546C336.97 453.798 314.203 466.414 291.518 479.046C282.735 483.936 274.11 489.107 265.258 493.876C258.446 497.546 219.458 520.913 213.928 520.676C209.007 516.957 191.328 487.861 186.307 480.281C158.442 437.404 130.864 394.345 103.572 351.103C92.6755 334.007 81.7209 317.05 71.2543 299.68C68.0856 294.421 63.9976 289.044 61.3944 283.528C60.8153 282.301 60.5915 281.266 60.9302 279.91C61.3142 278.373 63.0592 277.395 64.2983 276.55C75.7293 268.76 88.3871 262.096 100.295 255.025L177.687 209.092C165.758 212.168 152.618 213.871 140.32 214.61C103.945 216.795 64.39 209.47 36.4148 184.487C32.6532 181.128 20.7023 170.672 21.1639 165.289C21.2986 163.718 21.8836 163.202 23.1408 162.377C26.5318 160.154 30.9818 158.895 34.7526 157.441C41.941 154.667 57.9201 148.501 62.9621 142.938C69.3262 135.917 65.0554 101.205 75.3872 92.0794C76.9024 90.741 79.4644 90.9752 81.3417 91.1542C128.618 95.6631 188.856 137.34 218.717 173.281C208.573 142.215 206.935 106.944 212.636 74.85C215.111 60.9147 222.314 32.0912 234.018 23.9207Z" fill="#6734FF"/>
<path d="M414.324 197.086C415.209 196.955 415.568 196.963 416.413 197.11C418.084 198.683 418.932 201.049 419.913 203.096C415.458 204.238 411.071 205.41 406.718 206.913C406.2 207.051 405.76 207.046 405.227 207.056C403.54 205.123 402.724 202.654 401.744 200.31C405.844 199.001 410.143 198.119 414.324 197.086Z" fill="white"/>
<path d="M380.121 205.118L380.775 205.246C382.395 207.603 383.43 210.303 384.578 212.912C373.625 216.243 362.713 219.706 351.844 223.302C349.898 220.01 348.222 216.654 346.59 213.197C356.899 209.12 369.269 207.494 380.121 205.118Z" fill="white"/>
<path d="M378.416 153.92C384.001 154.846 389.588 155.421 395.148 156.555C397.642 161.135 412.486 186.997 412.128 190.116L411.006 190.613C406.682 191.56 402.525 192.448 398.112 192.905C390.933 180.37 385.203 166.729 378.416 153.92Z" fill="white"/>
<path d="M244.696 103.261C246.483 103.285 248.071 103.399 249.579 104.432C251.794 105.949 252.483 109.191 252.907 111.64C256.861 134.488 248.774 152.292 235.953 170.638C234.705 172.286 233.339 173.852 232.014 175.438C231.543 171.165 231.501 166.841 231.581 162.545C231.85 148.058 234.224 113.279 244.696 103.261Z" fill="white"/>
<path d="M363.659 150.599C364.755 150.763 366.537 150.868 367.473 151.464C370.149 153.169 397.485 208.23 398.259 213.461L397.001 214.68C397.869 214.83 398.62 215.083 399.444 215.391C405.076 222.885 408.467 232.937 412.643 241.339L449.875 317.528C452.626 323.116 462.083 339.612 463.361 344.267C463.735 345.628 462.929 346.411 462.28 347.538C461.568 348.503 460.795 349.4 460.02 350.314L459.521 350.07C457.107 345.931 455.193 341.452 453.052 337.164C448.862 328.792 444.715 320.399 440.61 311.985C423.964 278.047 408.349 243.651 392.063 209.553C386.492 197.978 380.808 186.46 375.01 174.997C371.673 168.364 365.014 157.591 363.659 150.599Z" fill="white"/>
<path d="M132.248 153.007C137.667 152.804 142.806 153.859 148.002 155.338C153.224 156.82 158.293 158.711 163.21 161.011C168.448 163.459 206.773 184.142 208.187 186.684L206.987 186.952C193.262 188.815 179.547 189.162 166.127 185.152C153.807 181.471 139.321 172.635 133.28 160.822C131.852 158.031 131.261 156.015 132.248 153.007Z" fill="white"/>
<path d="M181.747 303.423C184.893 304.251 188.308 312.369 190.089 315.328C183.299 319.739 176.079 323.619 169.137 327.799C159.193 333.787 149.408 340.036 139.426 345.964C132.432 350.119 125.119 353.882 118.417 358.494C115.22 356.605 111.779 350.055 110.121 346.728C133.621 331.708 158.24 318.411 181.747 303.423Z" fill="white"/>
<path d="M337.395 215.448L338.032 215.498C340.523 217.141 342.28 223.358 343.437 226.244C327.068 236.213 310.115 245.384 293.468 254.891C279.8 262.697 266.384 270.954 252.432 278.257C250.159 274.693 247.979 271.073 245.892 267.398C276.391 250.185 306.015 231.032 337.395 215.448Z" fill="white"/>
<path d="M421.96 210.105L422.51 210.103C425.195 211.936 472.784 308.127 479.363 320.456C476.488 324.95 472.846 332.325 468.818 335.658L468.014 335.213C448.006 294.934 429.021 254.113 408.36 214.154C412.869 212.634 417.338 211.257 421.96 210.105Z" fill="white"/>
<path d="M309.337 141.224C323.674 144.056 338.171 146.173 352.546 148.842C361.759 164.447 369.409 181.414 377.247 197.753L370.126 199.374C360.907 201.547 351.671 203.646 342.418 205.673C336.464 193.51 330.316 181.447 323.974 169.482C319.003 160.137 313.686 150.875 309.337 141.224Z" fill="white"/>
<path d="M386.555 220.575L387.489 220.559C388.848 221.858 389.663 223.705 390.474 225.383L454.589 359.018C449.078 368.189 443.45 377.289 437.706 386.316C436.261 383.285 434.518 380.346 432.909 377.396C424.68 363.268 417.399 348.544 409.71 334.115C391.182 299.691 373.106 265.031 355.482 230.136C365.737 226.693 376.093 223.33 386.555 220.575Z" fill="white"/>
<path d="M202.993 203.6C206.515 207.621 209.842 215.774 212.46 220.717C223.185 240.965 233.032 263.927 246.102 282.63C229.742 291.156 214.365 301.386 198.139 310.144C197.05 310.732 197.341 310.845 196.077 310.47C188.792 298.278 181.709 285.951 174.344 273.81C166.34 260.617 158.181 247.749 150.839 234.151C168.728 224.951 185.686 213.848 202.993 203.6Z" fill="white"/>
<path d="M143.076 238.889C143.922 239.118 144.084 239.492 144.614 240.224C148.081 245.011 150.883 250.843 154.032 255.908C162.426 269.129 170.646 282.458 178.691 295.894L132.035 323.994C123.436 329.171 114.614 334.074 106.23 339.589L105.637 339.432C101.635 335.336 98.4134 328.57 95.3347 323.637C86.8347 310.016 78.3249 296.423 70.3783 282.469C78.6574 278.088 86.4207 272.351 94.4592 267.499C110.548 257.787 126.907 248.476 143.076 238.889Z" fill="white"/>
<path d="M235.31 33.3029C243.978 41.6934 255.763 58.2056 267.185 62.2256C279.563 66.5822 305.054 53.0621 316.509 47.5169C315.953 55.0112 315.44 62.5309 314.137 69.9408C310.854 88.6101 302.938 109.138 291.194 124.061C283.549 133.774 274.435 142.243 265.545 150.781C259.694 156.4 254.24 162.462 248.23 167.896L254.187 156.161C255.126 154.097 255.978 151.997 256.741 149.862C257.504 147.726 258.177 145.562 258.76 143.371C259.343 141.179 259.833 138.967 260.231 136.734C260.628 134.501 260.932 132.256 261.142 129.998C261.943 120.351 261.509 106.642 254.705 99.0183C252.653 96.7194 249.965 94.9513 246.809 94.843C243.958 94.7451 241.388 96.1831 239.345 98.0664C225.291 111.021 224.693 146.148 223.75 164.482C220.992 151.12 218.666 137.674 217.799 124.041C215.957 95.078 220.206 58.2615 235.31 33.3029Z" fill="white"/>
<path d="M302.291 145.393C305.855 149.563 309.826 159.521 312.609 164.944C319.907 179.161 327.854 193.206 334.334 207.808C323.393 214.132 312.248 220.068 301.271 226.323C281.619 237.623 262.029 249.031 242.5 260.547C235.337 249.38 229.724 237.029 223.655 225.244C219.214 216.621 214.186 208.154 210.27 199.283C222.697 192.83 234.164 184.518 246.277 177.519C264.86 166.782 284.415 157.29 302.291 145.393Z" fill="white"/>
<path d="M79.616 98.7238C127.489 104.138 183.64 144.187 214.231 179.891C207.742 177.45 201.508 173.04 195.528 169.562C178.926 159.906 150.934 142.885 131.252 145.622C128.837 145.958 126.528 146.858 125.085 148.918C123.357 151.383 123.304 154.817 123.917 157.658C126.205 168.249 136.809 178.662 145.493 184.439C163.419 195.584 180.626 195.793 200.952 194.92C194.652 197.763 187.623 198.946 180.894 200.381C159.674 204.906 138.527 208.284 116.743 206.742C83.4826 204.387 53.1821 193.174 30.8025 167.513C41.1937 163.04 52.2603 158.947 62.135 153.452C65.905 151.354 69.5054 148.867 71.4555 144.88C74.7773 138.088 74.3636 126.073 75.4713 118.286C76.3802 111.665 77.7617 105.145 79.616 98.7238Z" fill="white"/>
<path d="M249.305 289.432C249.886 289.688 250.149 289.9 250.488 290.444C259.109 304.292 266.255 319.348 274.369 333.536C295.62 370.265 316.462 407.226 336.893 444.418C328.821 449.905 319.931 454.447 311.405 459.191C305.815 462.301 300.046 466.071 294.078 468.327C292.744 467.501 292.23 466.302 291.427 464.989L244.784 390.209C229.771 366.296 214.322 342.387 200.649 317.68C216.616 307.888 233.059 298.76 249.305 289.432Z" fill="white"/>
<path d="M193.02 322.354L193.536 322.461C193.716 322.612 282.703 464.967 286.301 472.852C277.757 476.869 269.505 482.102 261.282 486.747L216.496 511.888C194.021 476.842 170.668 442.358 148.402 407.162C139.746 393.481 129.659 379.799 122.527 365.302C145.69 350.482 169.757 337.041 193.02 322.354Z" fill="white"/>
<path d="M347.327 232.95C349.069 234.13 361.681 260.691 363.979 265.076C379.071 293.324 394.019 321.647 408.824 350.046C416.358 364.36 424.987 378.584 431.237 393.499C423.706 398.067 346.65 440.495 344.378 440.229L343.328 438.823L256.365 285.468C286.536 267.704 316.857 250.198 347.327 232.95Z" fill="white"/>
<path d="M684.26 377.705C684.926 377.638 685.58 377.576 686.249 377.544C697.442 377.006 709.16 376.921 720.307 378.149C763.343 382.887 804.809 403.32 836.596 432.384C876.428 468.804 902.089 520.398 904.43 574.598C906.935 632.63 888.947 689.023 849.252 732.05C848.001 733.408 846.733 734.75 845.448 736.077C844.163 737.404 842.863 738.715 841.547 740.01C840.23 741.305 838.898 742.584 837.55 743.846C836.202 745.109 834.839 746.354 833.46 747.583C832.081 748.812 830.688 750.023 829.28 751.218C827.872 752.413 826.449 753.59 825.012 754.75C823.575 755.909 822.124 757.051 820.659 758.176C819.194 759.3 817.715 760.406 816.223 761.494C814.73 762.582 813.225 763.651 811.707 764.702C810.188 765.753 808.657 766.786 807.113 767.799C805.569 768.812 804.013 769.807 802.445 770.782C800.877 771.757 799.297 772.713 797.706 773.65C796.114 774.586 794.511 775.503 792.897 776.4C791.283 777.297 789.658 778.175 788.022 779.032C786.387 779.889 784.741 780.726 783.084 781.543C781.428 782.36 779.762 783.157 778.086 783.933C776.411 784.709 774.726 785.464 773.031 786.199C771.337 786.934 769.634 787.648 767.922 788.341C766.211 789.034 764.491 789.705 762.762 790.356C761.034 791.007 759.298 791.637 757.554 792.245C755.811 792.853 754.06 793.44 752.302 794.005C750.544 794.57 748.779 795.114 747.008 795.636C745.236 796.158 743.458 796.658 741.675 797.136C739.891 797.615 738.102 798.071 736.307 798.505C734.512 798.94 732.712 799.352 730.907 799.742C729.102 800.133 727.293 800.501 725.479 800.847C723.664 801.193 721.846 801.517 720.025 801.818C718.203 802.119 716.377 802.398 714.548 802.654C712.719 802.911 710.888 803.145 709.053 803.357C707.218 803.568 705.382 803.757 703.543 803.924C701.704 804.091 699.863 804.235 698.02 804.356C696.177 804.477 694.333 804.576 692.488 804.652C640.105 807.063 583.738 791.918 542.955 758.017C502.38 724.288 476.586 678.328 471.876 625.437C471.72 623.619 471.586 621.799 471.475 619.977C471.364 618.156 471.275 616.333 471.208 614.509C471.142 612.686 471.098 610.861 471.077 609.036C471.056 607.211 471.058 605.387 471.081 603.562C471.105 601.737 471.152 599.913 471.221 598.089C471.29 596.266 471.381 594.443 471.495 592.622C471.609 590.801 471.746 588.981 471.905 587.163C472.064 585.345 472.245 583.529 472.449 581.715C472.652 579.902 472.878 578.091 473.127 576.283C473.376 574.475 473.647 572.67 473.94 570.869C474.233 569.068 474.548 567.27 474.885 565.477C475.223 563.684 475.583 561.895 475.964 560.11C476.346 558.325 476.75 556.546 477.175 554.771C477.601 552.997 478.049 551.228 478.518 549.464C478.987 547.701 479.478 545.943 479.991 544.192C480.504 542.441 481.038 540.696 481.594 538.957C482.15 537.219 482.727 535.488 483.326 533.764C483.925 532.04 484.544 530.324 485.185 528.615C485.826 526.906 486.488 525.206 487.171 523.514C487.854 521.821 488.558 520.138 489.283 518.463C490.008 516.788 490.753 515.122 491.519 513.466C492.284 511.809 493.07 510.162 493.877 508.525C494.684 506.888 495.51 505.262 496.357 503.645C497.204 502.028 498.07 500.422 498.956 498.827C499.843 497.232 500.749 495.648 501.674 494.075C502.599 492.502 503.544 490.94 504.508 489.391C505.472 487.842 506.455 486.304 507.457 484.779C508.459 483.254 509.48 481.741 510.519 480.241C511.558 478.741 512.616 477.254 513.692 475.78C514.768 474.306 515.862 472.845 516.975 471.398C518.087 469.951 519.217 468.519 520.364 467.1C521.512 465.681 522.677 464.276 523.859 462.886C559.468 420.496 610.25 389.342 664.998 379.843C671.365 378.738 677.827 378.262 684.26 377.705Z" fill="#272B5D"/>
<path d="M684.518 390.789C684.694 390.77 684.871 390.747 685.048 390.731C694.85 389.846 705.243 390.418 715.034 391.368C756.02 395.345 791.484 411.534 822.68 438.183C823.901 439.219 825.108 440.27 826.303 441.335C827.498 442.4 828.679 443.48 829.846 444.575C831.014 445.67 832.168 446.779 833.309 447.902C834.45 449.025 835.576 450.163 836.688 451.314C837.801 452.465 838.899 453.63 839.982 454.808C841.065 455.987 842.134 457.178 843.188 458.383C844.242 459.588 845.281 460.805 846.305 462.035C847.329 463.266 848.338 464.509 849.331 465.764C850.324 467.019 851.301 468.287 852.263 469.567C853.225 470.846 854.171 472.138 855.101 473.441C856.03 474.744 856.944 476.058 857.841 477.383C858.739 478.709 859.62 480.046 860.484 481.393C861.348 482.74 862.195 484.098 863.026 485.466C863.857 486.835 864.671 488.213 865.467 489.601C866.264 490.99 867.043 492.388 867.805 493.796C868.567 495.203 869.312 496.62 870.039 498.046C870.766 499.473 871.475 500.908 872.167 502.351C872.858 503.795 873.532 505.247 874.187 506.707C874.843 508.168 875.48 509.636 876.099 511.112C876.718 512.588 877.319 514.072 877.902 515.563C878.485 517.054 879.049 518.551 879.594 520.056C880.139 521.561 880.666 523.073 881.175 524.591C881.683 526.109 882.172 527.633 882.642 529.163C883.113 530.693 883.564 532.229 883.997 533.77C884.429 535.311 884.842 536.858 885.237 538.409C885.631 539.96 886.006 541.516 886.361 543.077C886.717 544.638 887.053 546.203 887.37 547.772C887.687 549.341 887.985 550.913 888.263 552.49C888.541 554.066 888.799 555.646 889.038 557.229C889.277 558.812 889.497 560.397 889.697 561.985C889.896 563.574 890.076 565.164 890.237 566.757C890.398 568.35 890.538 569.944 890.659 571.54C890.782 573.213 890.885 574.888 890.968 576.565C891.05 578.241 891.112 579.918 891.153 581.595C891.194 583.273 891.214 584.951 891.214 586.629C891.214 588.307 891.193 589.985 891.151 591.663C891.11 593.34 891.048 595.017 890.965 596.694C890.882 598.37 890.779 600.045 890.655 601.718C890.531 603.392 890.386 605.064 890.221 606.734C890.056 608.404 889.87 610.072 889.664 611.737C889.458 613.402 889.231 615.065 888.984 616.725C888.737 618.385 888.469 620.042 888.182 621.695C887.894 623.348 887.586 624.997 887.257 626.643C886.928 628.289 886.58 629.93 886.211 631.567C885.842 633.204 885.453 634.837 885.044 636.464C884.635 638.092 884.206 639.714 883.757 641.331C883.308 642.948 882.839 644.56 882.351 646.165C881.862 647.77 881.354 649.369 880.826 650.962C880.298 652.555 879.75 654.142 879.183 655.721C878.616 657.3 878.03 658.873 877.424 660.438C876.819 662.003 876.194 663.56 875.55 665.11C874.905 666.659 874.242 668.201 873.561 669.734C872.879 671.267 872.178 672.792 871.458 674.309C870.739 675.825 870.001 677.332 869.244 678.83C868.487 680.328 867.713 681.816 866.92 683.295C866.127 684.774 865.315 686.243 864.486 687.702C863.657 689.161 862.809 690.609 861.944 692.047C861.079 693.485 860.197 694.912 859.296 696.329C858.396 697.745 857.479 699.15 856.544 700.544C855.609 701.937 854.658 703.319 853.689 704.69C852.72 706.06 851.735 707.418 850.733 708.765C849.73 710.111 848.712 711.444 847.677 712.765C846.642 714.086 845.591 715.394 844.524 716.689C843.457 717.984 842.374 719.266 841.275 720.535C803.285 764.782 748.447 786.1 691.406 790.436C641.007 792.163 592.017 779.21 552.542 746.965C551.39 746.033 550.249 745.087 549.12 744.127C547.991 743.166 546.873 742.192 545.768 741.205C544.663 740.218 543.57 739.217 542.489 738.202C541.408 737.188 540.34 736.161 539.285 735.12C538.23 734.08 537.187 733.027 536.157 731.961C535.127 730.895 534.11 729.816 533.107 728.725C532.104 727.634 531.114 726.532 530.138 725.417C529.161 724.302 528.199 723.175 527.25 722.036C526.301 720.897 525.367 719.747 524.446 718.586C523.525 717.424 522.619 716.251 521.727 715.068C520.836 713.884 519.959 712.689 519.096 711.484C518.233 710.279 517.385 709.063 516.552 707.837C515.719 706.611 514.902 705.375 514.099 704.129C513.297 702.883 512.51 701.627 511.738 700.362C510.966 699.097 510.21 697.822 509.469 696.538C508.728 695.255 508.004 693.962 507.295 692.66C506.586 691.359 505.893 690.049 505.216 688.73C504.539 687.411 503.879 686.085 503.234 684.75C502.59 683.415 501.962 682.073 501.351 680.723C500.739 679.373 500.144 678.016 499.566 676.651C498.988 675.286 498.427 673.915 497.882 672.536C497.337 671.157 496.809 669.772 496.298 668.381C495.787 666.99 495.294 665.592 494.818 664.189C494.341 662.786 493.882 661.377 493.44 659.962C492.998 658.547 492.573 657.127 492.166 655.702C491.759 654.277 491.369 652.848 490.997 651.413C490.624 649.978 490.27 648.539 489.933 647.096C489.596 645.653 489.276 644.205 488.975 642.754C488.674 641.303 488.39 639.848 488.124 638.39C487.858 636.932 487.61 635.471 487.38 634.007C487.15 632.543 486.938 631.076 486.744 629.607C486.549 628.137 486.373 626.665 486.215 625.192C480.578 569.413 498.895 514.625 534.418 471.548C571.458 426.63 626.512 396.192 684.518 390.789Z" fill="white"/>
<path d="M598.823 663.939C609.103 664.487 626.128 674.356 634.21 680.602C637.322 683.006 643.011 687.209 643.128 691.493C643.167 692.931 642.108 693.824 641.17 694.744C637.566 695.007 633.133 689.932 630.362 687.719C623.571 682.294 615.483 677.581 607.493 674.176C604.813 673.034 601.396 672.582 598.981 670.975C597.917 670.267 597.339 669.445 597.171 668.155C596.983 666.711 598.07 665.07 598.823 663.939Z" fill="#272B5D"/>
<path d="M672.679 426.951C672.941 426.961 673.204 426.966 673.466 426.983C675.298 427.099 676.478 427.877 677.628 429.275C677.876 430.124 678.093 430.815 677.869 431.709C676.154 438.554 661.975 446.063 656.149 448.974C639.141 457.471 618.794 460.196 600.618 454.061C599.403 453.561 597.778 453.044 596.805 452.14C595.476 450.906 594.653 449.526 594.475 447.711C594.752 446.841 594.939 446.334 595.673 445.725C599.327 442.695 605.922 446.281 610.107 446.947C626.981 449.633 645.513 444.318 660.005 435.758C664.432 433.142 668.488 429.923 672.679 426.951Z" fill="#272B5D"/>
<path d="M773.242 460.487C774.754 460.41 776.959 460.097 778.238 461.065C781.036 463.181 781.206 476.615 782.035 480.256C782.968 484.356 784.386 488.405 786.047 492.263C791.263 504.378 799.453 517.52 812.023 523.04C814.576 524.161 819.573 525.571 821.402 527.539C821.947 528.126 822.289 528.829 822.289 529.626C822.287 531.832 820.73 533.122 819.258 534.533C810.464 534.343 802.31 529.325 795.869 523.71C781.281 510.992 772.276 489.843 771.009 470.722C770.762 466.986 770.633 463.425 773.242 460.487Z" fill="#272B5D"/>
<path d="M763.037 513.172C765.849 512.995 768.603 513.415 771.103 514.766C776.518 517.692 779.798 523.691 781.399 529.453C783.591 537.334 783.771 550.386 779.75 557.605C778.56 557.876 777.506 557.075 776.408 556.577C775.054 555.794 773.759 554.903 772.476 554.009C762.467 547.032 756.14 536.866 754.054 524.87C753.51 521.74 753.394 518.447 755.45 515.807C757.222 513.532 760.412 513.506 763.037 513.172Z" fill="#272B5D"/>
<path d="M628.461 468.141C630.128 468.231 631.779 468.343 633.408 468.732C639.195 470.117 642.228 474.166 645.169 478.959C635.766 489.109 624.887 495.886 611.511 499.359C606.272 500.173 601.018 500.224 595.731 500.262C597.546 495.45 600.103 490.719 603.085 486.531C609.23 477.9 617.69 469.901 628.461 468.141Z" fill="#272B5D"/>
<path d="M786.166 582.955C787.792 582.809 788.988 582.729 790.493 583.499C797.145 590.801 802.321 612.55 802.928 622.502C803.406 630.317 802.724 639.407 797.129 645.453C793.56 649.31 789.389 650.357 784.356 650.644C780.317 650.104 776.353 648.719 773.325 645.904C769.362 642.22 767.791 636.763 767.631 631.492C767.2 617.22 776.382 593.252 786.166 582.955Z" fill="#272B5D"/>
<path d="M787.215 594.283C791.257 597.985 795.027 617.425 795.456 623.348C795.872 629.09 795.465 635.917 791.344 640.342C789.181 642.665 787 642.673 784.001 642.754C783.1 642.475 782.177 642.195 781.32 641.797C778.558 640.513 776.7 637.712 775.885 634.858C772.473 622.903 781.484 604.381 787.215 594.283Z" fill="white"/>
<path d="M647.254 486.422C647.787 487.137 647.824 487.522 647.898 488.398C649.234 504.154 638.883 529.297 628.763 541.267C623.581 547.398 616.481 553.912 608.055 554.439C603.01 554.755 599.166 552.746 595.52 549.446C594.801 548.496 594.131 547.529 593.559 546.482C586.865 534.227 590.392 517.953 594.004 505.303C596.232 505.553 598.46 505.877 600.702 505.967C618.563 506.678 634.425 498.147 647.254 486.422Z" fill="#272B5D"/>
<path d="M747.501 519.892C747.801 520.179 748.08 520.598 748.184 520.997C748.579 522.501 748.501 524.392 748.711 525.957C748.97 527.965 749.356 529.948 749.87 531.907C750.383 533.866 751.02 535.784 751.78 537.661C756.65 549.503 766.636 559.201 778.376 564.167C773.004 578.811 765.958 594.649 751.98 602.879C748.87 604.294 746.104 605.297 742.611 605.261C738.287 605.217 734.423 603.556 731.49 600.366C724.436 592.698 723.539 580.523 724.145 570.653C725.293 551.971 733.29 532.384 747.501 519.892Z" fill="#272B5D"/>
<path d="M576.818 607.208C607.357 603.727 642.068 613.087 668.636 627.76C707.229 649.076 744.296 691.946 756.274 734.487C757.247 737.941 758.369 741.6 756.497 744.917C755.443 745.745 754.687 746.143 753.294 746.016C751.595 745.862 750.248 744.711 749.374 743.318C746.404 738.582 745.011 732.387 742.561 727.266C736.171 713.909 728.809 701.711 720.006 689.807C713.741 681.88 707.088 674.294 700.047 667.047C698.804 665.765 697.539 664.504 696.252 663.265C694.966 662.026 693.659 660.808 692.331 659.613C691.004 658.418 689.656 657.246 688.289 656.097C686.922 654.948 685.535 653.822 684.13 652.72C682.724 651.617 681.3 650.539 679.858 649.486C678.416 648.432 676.956 647.403 675.479 646.398C674.002 645.394 672.508 644.415 670.998 643.461C669.487 642.508 667.961 641.58 666.42 640.678C664.878 639.776 663.321 638.901 661.75 638.052C660.179 637.203 658.593 636.38 656.994 635.585C655.394 634.79 653.781 634.022 652.156 633.282C650.531 632.541 648.893 631.829 647.244 631.144C645.594 630.459 643.933 629.802 642.261 629.173C640.589 628.544 638.907 627.944 637.215 627.373C635.523 626.802 633.821 626.259 632.11 625.745C630.399 625.232 628.681 624.747 626.954 624.292C625.227 623.836 623.492 623.41 621.751 623.014C620.009 622.617 618.261 622.25 616.507 621.913C614.753 621.576 612.994 621.268 611.229 620.991C609.465 620.713 607.696 620.465 605.923 620.248C604.15 620.031 602.374 619.843 600.595 619.686C598.816 619.529 597.034 619.402 595.251 619.305C593.467 619.208 591.682 619.142 589.897 619.105C588.111 619.069 586.325 619.063 584.539 619.087C582.753 619.112 580.968 619.166 579.184 619.251C577.399 619.336 575.617 619.452 573.837 619.597C572.057 619.742 570.28 619.918 568.505 620.124C566.731 620.329 564.961 620.565 563.194 620.831C561.428 621.097 559.667 621.393 557.91 621.718C556.154 622.044 554.404 622.399 552.66 622.784C550.915 623.169 549.178 623.584 547.448 624.027C545.718 624.471 543.996 624.944 542.282 625.447C537.458 626.917 532.701 628.577 528.01 630.428C523.181 632.368 510.666 639.34 506.22 639.31C504.988 638.508 503.902 637.306 503.743 635.761C503.61 634.482 504.383 633.27 505.193 632.353C513.311 623.165 544.738 612.588 557.425 609.827C563.76 608.448 570.365 607.752 576.818 607.208Z" fill="#272B5D"/>
</g>
<defs>
<clipPath id="clip0_11_73">
<rect width="1024" height="1024" fill="white"/>
</clipPath>
</defs>
</svg>
