<svg width="48" height="48" viewBox="0 0 48 48" fill="none" xmlns="http://www.w3.org/2000/svg">
<rect width="48" height="48" rx="24" fill="#141414"/>
<g clip-path="url(#clip0_13_12)">
<path d="M36.1053 29.8666C39.3027 29.8666 41.8947 27.24 41.8947 24C41.8947 20.7599 39.3027 18.1333 36.1053 18.1333C32.9078 18.1333 30.3158 20.7599 30.3158 24C30.3158 27.24 32.9078 29.8666 36.1053 29.8666Z" stroke="white" stroke-width="4"/>
<path d="M6.10529 16.5333V25.3333C6.10529 27.837 8.10822 29.8667 10.579 29.8667C13.0497 29.8667 15.0527 27.837 15.0527 25.3333V16.5333" stroke="white" stroke-width="4"/>
<path d="M15.0526 16.5333V25.3333C15.0526 27.837 17.0556 29.8667 19.5263 29.8667C21.997 29.8667 24 27.837 24 25.3333V16.5333" stroke="white" stroke-width="4"/>
</g>
<defs>
<clipPath id="clip0_13_12">
<rect width="40" height="16" fill="white" transform="translate(4 16)"/>
</clipPath>
</defs>
</svg>
